<svg width="25" height="25" viewBox="0 0 25 25" fill="none" xmlns="http://www.w3.org/2000/svg">
<path d="M12.5 24.125C9.27083 24.125 6.52604 22.9948 4.26562 20.7344C2.00521 18.474 0.875 15.7292 0.875 12.5C0.875 9.27083 2.00521 6.52604 4.26562 4.26562C6.52604 2.00521 9.27083 0.875 12.5 0.875C12.8014 0.875 13.0976 0.885764 13.3887 0.907292C13.6789 0.92882 13.9639 0.961111 14.2437 1.00417C13.3611 1.62847 12.6563 2.44093 12.1293 3.44154C11.6014 4.44301 11.3375 5.525 11.3375 6.6875C11.3375 8.625 12.0156 10.2719 13.3719 11.6281C14.7281 12.9844 16.375 13.6625 18.3125 13.6625C19.4965 13.6625 20.5837 13.3986 21.574 12.8707C22.5642 12.3437 23.3715 11.6389 23.9958 10.7562C24.0389 11.0361 24.0712 11.3211 24.0927 11.6113C24.1142 11.9024 24.125 12.1986 24.125 12.5C24.125 15.7292 22.9948 18.474 20.7344 20.7344C18.474 22.9948 15.7292 24.125 12.5 24.125ZM12.5 21.5417C14.3944 21.5417 16.0951 21.0198 17.6021 19.9762C19.109 18.9316 20.2069 17.5698 20.8958 15.8906C20.4653 15.9983 20.0347 16.0844 19.6042 16.149C19.1736 16.2135 18.7431 16.2458 18.3125 16.2458C15.6646 16.2458 13.4093 15.315 11.5468 13.4532C9.68503 11.5907 8.75417 9.33542 8.75417 6.6875C8.75417 6.25694 8.78646 5.82639 8.85104 5.39583C8.91562 4.96528 9.00174 4.53472 9.10938 4.10417C7.43021 4.79306 6.06879 5.89097 5.02512 7.39792C3.9806 8.90486 3.45833 10.6056 3.45833 12.5C3.45833 14.9972 4.34097 17.1285 6.10625 18.8938C7.87153 20.659 10.0028 21.5417 12.5 21.5417Z" fill="white"/>
</svg>
