<svg width="29" height="29" viewBox="0 0 29 29" fill="none" xmlns="http://www.w3.org/2000/svg">
<path d="M14.4998 18.3753C15.5762 18.3753 16.4912 17.9986 17.2446 17.2451C17.9981 16.4916 18.3748 15.5767 18.3748 14.5003C18.3748 13.4239 17.9981 12.509 17.2446 11.7555C16.4912 11.0021 15.5762 10.6253 14.4998 10.6253C13.4234 10.6253 12.5085 11.0021 11.755 11.7555C11.0016 12.509 10.6248 13.4239 10.6248 14.5003C10.6248 15.5767 11.0016 16.4916 11.755 17.2451C12.5085 17.9986 13.4234 18.3753 14.4998 18.3753ZM14.4998 20.9587C12.713 20.9587 11.1902 20.3288 9.93121 19.0689C8.67141 17.81 8.0415 16.2871 8.0415 14.5003C8.0415 12.7135 8.67141 11.1902 9.93121 9.93041C11.1902 8.67146 12.713 8.04199 14.4998 8.04199C16.2866 8.04199 17.8099 8.67146 19.0698 9.93041C20.3287 11.1902 20.9582 12.7135 20.9582 14.5003C20.9582 16.2871 20.3287 17.81 19.0698 19.0689C17.8099 20.3288 16.2866 20.9587 14.4998 20.9587ZM0.291504 15.792V13.2087H5.45817V15.792H0.291504ZM23.5415 15.792V13.2087H28.7082V15.792H23.5415ZM13.2082 5.45866V0.291992H15.7915V5.45866H13.2082ZM13.2082 28.7087V23.542H15.7915V28.7087H13.2082ZM7.20192 9.01074L4.00505 5.81387L5.81338 4.00553L9.01025 7.20241L7.20192 9.01074ZM23.1863 24.9951L19.9894 21.7982L21.7978 19.9899L24.9946 23.1868L23.1863 24.9951ZM21.7978 9.01074L19.9894 7.20241L23.1863 4.00553L24.9946 5.81387L21.7978 9.01074ZM5.81338 24.9951L4.00505 23.1868L7.20192 19.9899L9.01025 21.7982L5.81338 24.9951Z" fill="black"/>
</svg>
