<svg viewBox="0 0 900 450" width="900" height="450" xmlns="http://www.w3.org/2000/svg"><path d="m0 307 21.5-1.999c21.5-1.999 64.5-6 107.299-10.8 42.9-4.901 85.5-10.5 128.4-9.5 42.8 1.001 85.8 8.599 128.6 11 42.9 2.3 85.5-.701 128.4-4.5 42.8-3.9 85.8-8.5 128.6-4.399 42.9 4.2 85.5 17.201 128.4 17.5 42.8.401 85.8-12 107.299-18.101L900 280v171H0Z" fill="#c0dffc"/><path d="m0 308 21.5-1.5c21.501-1.5 64.499-4.5 107.3-.3 42.9 4.099 85.5 15.5 128.4 21.3 42.8 5.8 85.8 6.2 128.6 4.8 42.9-1.3 85.5-4.3 128.4-8 42.8-3.6 85.8-8 128.6-8.599 42.9-.701 85.5 2.3 128.4 7.099 42.8 4.901 85.8 11.5 107.299 14.899L900 341v109.999H0Z" fill="#97c6f9"/><path d="m0 344 21.5-3.2c21.5-3.101 64.5-9.5 107.299-9.6 42.9-.2 85.5 5.8 128.4 5.3C300 336 343 329 385.8 326c42.9-3 85.5-1.999 128.4 1.001 42.8 3 85.8 8 128.6 8.8 42.9.9 85.5-2.501 128.4-2.599 42.8-.2 85.8 2.8 107.299 4.3L900 339v112.001H0Z" fill="#70acf5"/><path d="m0 375 21.5-1.3c21.5-1.4 64.5-4 107.299-5.899 42.9-1.8 85.5-2.8 128.4-1.001 42.8 1.9 85.8 6.5 128.6 9.7 42.9 3.2 85.5 4.8 128.4 4.2 42.8-.701 85.8-3.7 128.6-7 42.9-3.401 85.5-7 128.4-6.401 42.8.701 85.8 5.7 107.299 8.2L900 378v73.001H0Z" fill="#4c92ef"/><path d="m0 406 21.5.3c21.5.401 64.5 1.001 107.299.401 42.9-.701 85.5-2.7 128.4-5.2 42.8-2.501 85.8-5.5 128.6-7.7 42.9-2.1 85.5-3.5 128.4-5.599C557 386 600 383 642.8 384c42.9 1.001 85.5 6 128.4 8.8 42.8 2.9 85.8 3.5 107.299 3.9l21.5.3v54H0Z" fill="#0559DB"/><path d="m0 429 21.5-2.8c21.501-2.9 64.499-8.5 107.3-12.2 42.9-3.7 85.5-5.3 128.4-5.5 42.8-.2 85.8 1.2 128.6 3.7 42.9 2.501 85.5 6.101 128.4 5.599 42.8-.5 85.8-5.1 128.6-4.8 42.9.3 85.5 5.7 128.4 8.3C814.001 424 856.999 424 878.501 424H900v27H0Z" fill="#C0DFFC"/></svg>