<svg width="900" height="600" viewBox="0 201 900 600" fill="none" xmlns="http://www.w3.org/2000/svg">
<g clip-path="url(#clip0_346_757)">
<rect y="399" width="900" height="201" fill="#D9D9D9"/>
<path d="M900 0H0V600H900V0Z" fill="#001220"/>
<path d="M0 452L13.7 452.3C27.3 452.7 54.7 453.3 82 448.5C109.3 443.7 136.7 433.3 163.8 434.3C191 435.3 218 447.7 245.2 447.3C272.3 447 299.7 434 327 432.5C354.3 431 381.7 441 409 445.5C436.3 450 463.7 449 491 453.5C518.3 458 545.7 468 573 468.8C600.3 469.7 627.7 461.3 654.8 450.5C682 439.7 709 426.3 736.2 422.2C763.3 418 790.7 423 818 420.7C845.3 418.3 872.7 408.7 886.3 403.8L900 399V601H886.3C872.7 601 845.3 601 818 601C790.7 601 763.3 601 736.2 601C709 601 682 601 654.8 601C627.7 601 600.3 601 573 601C545.7 601 518.3 601 491 601C463.7 601 436.3 601 409 601C381.7 601 354.3 601 327 601C299.7 601 272.3 601 245.2 601C218 601 191 601 163.8 601C136.7 601 109.3 601 82 601C54.7 601 27.3 601 13.7 601H0V452Z" fill="#C0DFFC"/>
<path d="M0 463L13.7 464.3C27.3 465.7 54.7 468.3 82 472.7C109.3 477 136.7 483 163.8 477.2C191 471.3 218 453.7 245.2 447.7C272.3 441.7 299.7 447.3 327 449C354.3 450.7 381.7 448.3 409 456.3C436.3 464.3 463.7 482.7 491 482.7C518.3 482.7 545.7 464.3 573 454.5C600.3 444.7 627.7 443.3 654.8 448C682 452.7 709 463.3 736.2 465C763.3 466.7 790.7 459.3 818 455.7C845.3 452 872.7 452 886.3 452H900V601H886.3C872.7 601 845.3 601 818 601C790.7 601 763.3 601 736.2 601C709 601 682 601 654.8 601C627.7 601 600.3 601 573 601C545.7 601 518.3 601 491 601C463.7 601 436.3 601 409 601C381.7 601 354.3 601 327 601C299.7 601 272.3 601 245.2 601C218 601 191 601 163.8 601C136.7 601 109.3 601 82 601C54.7 601 27.3 601 13.7 601H0V463Z" fill="#7DB5F6"/>
<path d="M0 477L13.7 479.8C27.3 482.7 54.7 488.3 82 493C109.3 497.7 136.7 501.3 163.8 498.8C191 496.3 218 487.7 245.2 491.2C272.3 494.7 299.7 510.3 327 514.3C354.3 518.3 381.7 510.7 409 506.5C436.3 502.3 463.7 501.7 491 506C518.3 510.3 545.7 519.7 573 522.7C600.3 525.7 627.7 522.3 654.8 521.2C682 520 709 521 736.2 515.2C763.3 509.3 790.7 496.7 818 489.2C845.3 481.7 872.7 479.3 886.3 478.2L900 477V601H886.3C872.7 601 845.3 601 818 601C790.7 601 763.3 601 736.2 601C709 601 682 601 654.8 601C627.7 601 600.3 601 573 601C545.7 601 518.3 601 491 601C463.7 601 436.3 601 409 601C381.7 601 354.3 601 327 601C299.7 601 272.3 601 245.2 601C218 601 191 601 163.8 601C136.7 601 109.3 601 82 601C54.7 601 27.3 601 13.7 601H0V477Z" fill="#4088EC"/>
<path d="M0 544L13.7 541C27.3 538 54.7 532 82 527.8C109.3 523.7 136.7 521.3 163.8 517.7C191 514 218 509 245.2 508.2C272.3 507.3 299.7 510.7 327 517.2C354.3 523.7 381.7 533.3 409 534.5C436.3 535.7 463.7 528.3 491 529.2C518.3 530 545.7 539 573 540.7C600.3 542.3 627.7 536.7 654.8 533.3C682 530 709 529 736.2 529.7C763.3 530.3 790.7 532.7 818 535.5C845.3 538.3 872.7 541.7 886.3 543.3L900 545V601H886.3C872.7 601 845.3 601 818 601C790.7 601 763.3 601 736.2 601C709 601 682 601 654.8 601C627.7 601 600.3 601 573 601C545.7 601 518.3 601 491 601C463.7 601 436.3 601 409 601C381.7 601 354.3 601 327 601C299.7 601 272.3 601 245.2 601C218 601 191 601 163.8 601C136.7 601 109.3 601 82 601C54.7 601 27.3 601 13.7 601H0V544Z" fill="#0559DB"/>
<path d="M0 542L13.7 543.5C27.3 545 54.7 548 82 548.2C109.3 548.3 136.7 545.7 163.8 545.7C191 545.7 218 548.3 245.2 551.2C272.3 554 299.7 557 327 556.5C354.3 556 381.7 552 409 548.8C436.3 545.7 463.7 543.3 491 544C518.3 544.7 545.7 548.3 573 550.3C600.3 552.3 627.7 552.7 654.8 554.8C682 557 709 561 736.2 560.5C763.3 560 790.7 555 818 556.2C845.3 557.3 872.7 564.7 886.3 568.3L900 572V601H886.3C872.7 601 845.3 601 818 601C790.7 601 763.3 601 736.2 601C709 601 682 601 654.8 601C627.7 601 600.3 601 573 601C545.7 601 518.3 601 491 601C463.7 601 436.3 601 409 601C381.7 601 354.3 601 327 601C299.7 601 272.3 601 245.2 601C218 601 191 601 163.8 601C136.7 601 109.3 601 82 601C54.7 601 27.3 601 13.7 601H0V542Z" fill="#C0DFFC"/>
</g>
<defs>
<clipPath id="clip0_346_757">
<rect width="900" height="600" fill="white"/>
</clipPath>
</defs>
</svg>
